<mxfile host="Electron" agent="Mozilla/5.0 (Windows NT 10.0; Win64; x64) AppleWebKit/537.36 (KHTML, like Gecko) draw.io/24.7.8 Chrome/128.0.6613.36 Electron/32.0.1 Safari/537.36" border="50" scale="3" compressed="false" locked="false" version="24.7.8">
  <diagram name="Blank" id="YmL12bMKpDGza6XwsDPr">
    <mxGraphModel dx="7640" dy="2547" grid="0" gridSize="10" guides="1" tooltips="1" connect="1" arrows="1" fold="1" page="0" pageScale="1" pageWidth="827" pageHeight="1169" background="none" math="1" shadow="0">
      <root>
        <mxCell id="X5NqExCQtvZxIxQ7pmgY-0" />
        <mxCell id="1" parent="X5NqExCQtvZxIxQ7pmgY-0" />
        <object label="&lt;span style=&quot;font-size: 24px;&quot;&gt;Endereço&lt;/span&gt;" id="_2FyJOpEgwjQeb3k811O-14">
          <mxCell style="rounded=0;whiteSpace=wrap;html=1;" parent="1" vertex="1">
            <mxGeometry x="-1176" y="554" width="120" height="60" as="geometry" />
          </mxCell>
        </object>
        <object label="&lt;span style=&quot;font-size: 24px;&quot;&gt;Telefone&lt;/span&gt;" id="_2FyJOpEgwjQeb3k811O-15">
          <mxCell style="rounded=0;whiteSpace=wrap;html=1;" parent="1" vertex="1">
            <mxGeometry x="-1056" y="554" width="120" height="60" as="geometry" />
          </mxCell>
        </object>
        <object label="&lt;span style=&quot;font-size: 24px;&quot;&gt;E-mail&lt;/span&gt;" id="_2FyJOpEgwjQeb3k811O-16">
          <mxCell style="rounded=0;whiteSpace=wrap;html=1;" parent="1" vertex="1">
            <mxGeometry x="-936" y="554" width="120" height="60" as="geometry" />
          </mxCell>
        </object>
        <object label="&lt;span style=&quot;font-size: 24px;&quot;&gt;Nome&lt;/span&gt;" id="_2FyJOpEgwjQeb3k811O-17">
          <mxCell style="rounded=0;whiteSpace=wrap;html=1;" parent="1" vertex="1">
            <mxGeometry x="-1296" y="554" width="120" height="60" as="geometry" />
          </mxCell>
        </object>
        <object label="&lt;span style=&quot;font-size: 24px;&quot;&gt;Salário&lt;/span&gt;" id="_2FyJOpEgwjQeb3k811O-19">
          <mxCell style="rounded=0;whiteSpace=wrap;html=1;" parent="1" vertex="1">
            <mxGeometry x="-816" y="554" width="120" height="60" as="geometry" />
          </mxCell>
        </object>
        <object label="&lt;font style=&quot;font-size: 24px;&quot;&gt;Endereço&lt;/font&gt;" id="_2FyJOpEgwjQeb3k811O-26">
          <mxCell style="rounded=0;whiteSpace=wrap;html=1;" parent="1" vertex="1">
            <mxGeometry x="-2456" y="546" width="120" height="60" as="geometry" />
          </mxCell>
        </object>
        <mxCell id="X-zzqmeFg_C_4G8-m1_Y-31" style="edgeStyle=orthogonalEdgeStyle;rounded=0;orthogonalLoop=1;jettySize=auto;html=1;exitX=0.5;exitY=1;exitDx=0;exitDy=0;entryX=0.5;entryY=0;entryDx=0;entryDy=0;" edge="1" parent="1" source="_2FyJOpEgwjQeb3k811O-27" target="_2FyJOpEgwjQeb3k811O-97">
          <mxGeometry relative="1" as="geometry" />
        </mxCell>
        <object label="&lt;span style=&quot;font-size: 24px;&quot;&gt;CPF_Cliente&lt;/span&gt;" id="_2FyJOpEgwjQeb3k811O-27">
          <mxCell style="rounded=0;whiteSpace=wrap;html=1;" parent="1" vertex="1">
            <mxGeometry x="-2336" y="546" width="159" height="60" as="geometry" />
          </mxCell>
        </object>
        <object label="&lt;font style=&quot;font-size: 24px;&quot;&gt;Data&lt;/font&gt;" id="_2FyJOpEgwjQeb3k811O-29">
          <mxCell style="rounded=0;whiteSpace=wrap;html=1;" parent="1" vertex="1">
            <mxGeometry x="-2576" y="546" width="120" height="60" as="geometry" />
          </mxCell>
        </object>
        <object label="&lt;font style=&quot;font-size: 24px;&quot;&gt;&lt;u style=&quot;&quot;&gt;ID_Pedido&lt;/u&gt;&lt;/font&gt;" id="_2FyJOpEgwjQeb3k811O-30">
          <mxCell style="rounded=0;whiteSpace=wrap;html=1;" parent="1" vertex="1">
            <mxGeometry x="-2704" y="546" width="128" height="60" as="geometry" />
          </mxCell>
        </object>
        <object label="&lt;span style=&quot;font-size: 24px;&quot;&gt;Status&lt;/span&gt;" id="_2FyJOpEgwjQeb3k811O-31">
          <mxCell style="rounded=0;whiteSpace=wrap;html=1;" parent="1" vertex="1">
            <mxGeometry x="-1979" y="546.5" width="120" height="60" as="geometry" />
          </mxCell>
        </object>
        <object label="&lt;span style=&quot;font-size: 24px;&quot;&gt;Quantidade&lt;/span&gt;" id="_2FyJOpEgwjQeb3k811O-33">
          <mxCell style="rounded=0;whiteSpace=wrap;html=1;" parent="1" vertex="1">
            <mxGeometry x="-2344" y="23" width="145" height="60" as="geometry" />
          </mxCell>
        </object>
        <mxCell id="X-zzqmeFg_C_4G8-m1_Y-24" style="edgeStyle=orthogonalEdgeStyle;rounded=0;orthogonalLoop=1;jettySize=auto;html=1;exitX=0.5;exitY=0;exitDx=0;exitDy=0;entryX=0.5;entryY=1;entryDx=0;entryDy=0;" edge="1" parent="1" source="_2FyJOpEgwjQeb3k811O-34" target="_2FyJOpEgwjQeb3k811O-100">
          <mxGeometry relative="1" as="geometry" />
        </mxCell>
        <object label="&lt;span style=&quot;font-size: 24px;&quot;&gt;&lt;u&gt;ID_Acompanhamento&lt;/u&gt;&lt;/span&gt;" id="_2FyJOpEgwjQeb3k811O-34">
          <mxCell style="rounded=0;whiteSpace=wrap;html=1;" parent="1" vertex="1">
            <mxGeometry x="-2601" y="23" width="260" height="60" as="geometry" />
          </mxCell>
        </object>
        <mxCell id="X-zzqmeFg_C_4G8-m1_Y-30" style="edgeStyle=orthogonalEdgeStyle;rounded=0;orthogonalLoop=1;jettySize=auto;html=1;exitX=0.5;exitY=1;exitDx=0;exitDy=0;entryX=0.25;entryY=0;entryDx=0;entryDy=0;" edge="1" parent="1" source="_2FyJOpEgwjQeb3k811O-35" target="_2FyJOpEgwjQeb3k811O-30">
          <mxGeometry relative="1" as="geometry" />
        </mxCell>
        <object label="&lt;span style=&quot;font-size: 24px;&quot;&gt;&lt;u&gt;ID_Pedido&lt;/u&gt;&lt;/span&gt;" id="_2FyJOpEgwjQeb3k811O-35">
          <mxCell style="rounded=0;whiteSpace=wrap;html=1;" parent="1" vertex="1">
            <mxGeometry x="-2743" y="23" width="142" height="60" as="geometry" />
          </mxCell>
        </object>
        <object label="&lt;span style=&quot;font-size: 24px;&quot;&gt;Nome&lt;/span&gt;" id="_2FyJOpEgwjQeb3k811O-37">
          <mxCell style="rounded=0;whiteSpace=wrap;html=1;" parent="1" vertex="1">
            <mxGeometry x="-1561" y="196" width="120" height="60" as="geometry" />
          </mxCell>
        </object>
        <object label="&lt;span style=&quot;font-size: 24px;&quot;&gt;&lt;u&gt;ID_Pizza&lt;/u&gt;&lt;/span&gt;" id="_2FyJOpEgwjQeb3k811O-38">
          <mxCell style="rounded=0;whiteSpace=wrap;html=1;" parent="1" vertex="1">
            <mxGeometry x="-1681" y="196" width="120" height="60" as="geometry" />
          </mxCell>
        </object>
        <object label="&lt;span style=&quot;font-size: 24px;&quot;&gt;Quantidade&lt;/span&gt;" id="_2FyJOpEgwjQeb3k811O-42">
          <mxCell style="rounded=0;whiteSpace=wrap;html=1;" parent="1" vertex="1">
            <mxGeometry x="-1383" y="26" width="166" height="60" as="geometry" />
          </mxCell>
        </object>
        <object label="&lt;span style=&quot;font-size: 24px;&quot;&gt;Nome&lt;/span&gt;" id="_2FyJOpEgwjQeb3k811O-46">
          <mxCell style="rounded=0;whiteSpace=wrap;html=1;" parent="1" vertex="1">
            <mxGeometry x="-1380" y="-138" width="120" height="60" as="geometry" />
          </mxCell>
        </object>
        <object label="&lt;span style=&quot;font-size: 24px;&quot;&gt;Preço_Unidade&lt;/span&gt;" id="_2FyJOpEgwjQeb3k811O-47">
          <mxCell style="rounded=0;whiteSpace=wrap;html=1;" parent="1" vertex="1">
            <mxGeometry x="-1260" y="-138" width="190" height="60" as="geometry" />
          </mxCell>
        </object>
        <object label="&lt;span style=&quot;font-size: 24px;&quot;&gt;&lt;u&gt;ID_Ingrediente&lt;/u&gt;&lt;/span&gt;" id="_2FyJOpEgwjQeb3k811O-49">
          <mxCell style="rounded=0;whiteSpace=wrap;html=1;" parent="1" vertex="1">
            <mxGeometry x="-1562" y="-138" width="182" height="60" as="geometry" />
          </mxCell>
        </object>
        <object label="&lt;span style=&quot;font-size: 24px;&quot;&gt;Nome&lt;/span&gt;" id="_2FyJOpEgwjQeb3k811O-54">
          <mxCell style="rounded=0;whiteSpace=wrap;html=1;" parent="1" vertex="1">
            <mxGeometry x="-2341" y="-143" width="120" height="60" as="geometry" />
          </mxCell>
        </object>
        <object label="&lt;span style=&quot;font-size: 24px;&quot;&gt;Preço&lt;/span&gt;" id="_2FyJOpEgwjQeb3k811O-55">
          <mxCell style="rounded=0;whiteSpace=wrap;html=1;" parent="1" vertex="1">
            <mxGeometry x="-2221" y="-143" width="120" height="60" as="geometry" />
          </mxCell>
        </object>
        <object label="&lt;span style=&quot;font-size: 24px;&quot;&gt;Preço&lt;/span&gt;" id="_2FyJOpEgwjQeb3k811O-62">
          <mxCell style="rounded=0;whiteSpace=wrap;html=1;" parent="1" vertex="1">
            <mxGeometry x="-2338" y="-317" width="120" height="60" as="geometry" />
          </mxCell>
        </object>
        <object label="&lt;span style=&quot;font-size: 24px;&quot;&gt;Qunatidade&lt;/span&gt;" id="_2FyJOpEgwjQeb3k811O-63">
          <mxCell style="rounded=0;whiteSpace=wrap;html=1;" parent="1" vertex="1">
            <mxGeometry x="-2218" y="-317" width="148" height="60" as="geometry" />
          </mxCell>
        </object>
        <mxCell id="X-zzqmeFg_C_4G8-m1_Y-8" style="edgeStyle=orthogonalEdgeStyle;rounded=0;orthogonalLoop=1;jettySize=auto;html=1;exitX=0.5;exitY=0;exitDx=0;exitDy=0;entryX=0.25;entryY=1;entryDx=0;entryDy=0;" edge="1" parent="1" source="_2FyJOpEgwjQeb3k811O-64" target="_2FyJOpEgwjQeb3k811O-80">
          <mxGeometry relative="1" as="geometry" />
        </mxCell>
        <object label="&lt;span style=&quot;font-size: 24px;&quot;&gt;&lt;u&gt;CNPJ&lt;/u&gt;&lt;/span&gt;" id="_2FyJOpEgwjQeb3k811O-64">
          <mxCell style="rounded=0;whiteSpace=wrap;html=1;" parent="1" vertex="1">
            <mxGeometry x="-2721" y="-317" width="120" height="60" as="geometry" />
          </mxCell>
        </object>
        <mxCell id="_2FyJOpEgwjQeb3k811O-65" value="&lt;font style=&quot;font-size: 36px;&quot;&gt;Pedido&lt;/font&gt;" style="text;html=1;align=center;verticalAlign=middle;whiteSpace=wrap;rounded=0;" parent="1" vertex="1">
          <mxGeometry x="-2853" y="542" width="163" height="71" as="geometry" />
        </mxCell>
        <mxCell id="_2FyJOpEgwjQeb3k811O-66" value="&lt;font style=&quot;font-size: 36px;&quot;&gt;Acompanhamento_Pedido&lt;/font&gt;" style="text;html=1;align=center;verticalAlign=middle;whiteSpace=wrap;rounded=0;" parent="1" vertex="1">
          <mxGeometry x="-3168" y="15" width="425" height="71" as="geometry" />
        </mxCell>
        <mxCell id="_2FyJOpEgwjQeb3k811O-67" value="&lt;font style=&quot;font-size: 36px;&quot;&gt;Cliente&lt;/font&gt;" style="text;html=1;align=center;verticalAlign=middle;whiteSpace=wrap;rounded=0;" parent="1" vertex="1">
          <mxGeometry x="-2484" y="804" width="163" height="71" as="geometry" />
        </mxCell>
        <mxCell id="_2FyJOpEgwjQeb3k811O-69" value="&lt;font style=&quot;font-size: 36px;&quot;&gt;Entregador&lt;/font&gt;" style="text;html=1;align=center;verticalAlign=middle;whiteSpace=wrap;rounded=0;" parent="1" vertex="1">
          <mxGeometry x="-1629" y="552" width="213" height="71" as="geometry" />
        </mxCell>
        <mxCell id="_2FyJOpEgwjQeb3k811O-70" value="&lt;font style=&quot;font-size: 36px;&quot;&gt;Inclui&lt;/font&gt;" style="text;html=1;align=center;verticalAlign=middle;whiteSpace=wrap;rounded=0;" parent="1" vertex="1">
          <mxGeometry x="-1845" y="24" width="163" height="61" as="geometry" />
        </mxCell>
        <mxCell id="_2FyJOpEgwjQeb3k811O-71" value="&lt;font style=&quot;font-size: 36px;&quot;&gt;Ingrediente&lt;/font&gt;" style="text;html=1;align=center;verticalAlign=middle;whiteSpace=wrap;rounded=0;" parent="1" vertex="1">
          <mxGeometry x="-1772" y="-143.5" width="210" height="71" as="geometry" />
        </mxCell>
        <mxCell id="_2FyJOpEgwjQeb3k811O-72" value="&lt;font style=&quot;font-size: 36px;&quot;&gt;Acompanhamento&lt;/font&gt;" style="text;html=1;align=center;verticalAlign=middle;whiteSpace=wrap;rounded=0;" parent="1" vertex="1">
          <mxGeometry x="-2910" y="-149" width="305" height="71" as="geometry" />
        </mxCell>
        <object label="&lt;span style=&quot;font-size: 24px;&quot;&gt;Nome&lt;/span&gt;" id="_2FyJOpEgwjQeb3k811O-77">
          <mxCell style="rounded=0;whiteSpace=wrap;html=1;" parent="1" vertex="1">
            <mxGeometry x="-2075" y="-505" width="120" height="60" as="geometry" />
          </mxCell>
        </object>
        <object label="&lt;span style=&quot;font-size: 24px;&quot;&gt;Telefone&lt;/span&gt;" id="_2FyJOpEgwjQeb3k811O-78">
          <mxCell style="rounded=0;whiteSpace=wrap;html=1;" parent="1" vertex="1">
            <mxGeometry x="-1955" y="-505" width="120" height="60" as="geometry" />
          </mxCell>
        </object>
        <object label="&lt;span style=&quot;font-size: 24px;&quot;&gt;E-mail&lt;/span&gt;" id="_2FyJOpEgwjQeb3k811O-79">
          <mxCell style="rounded=0;whiteSpace=wrap;html=1;" parent="1" vertex="1">
            <mxGeometry x="-1835" y="-505" width="120" height="60" as="geometry" />
          </mxCell>
        </object>
        <object label="&lt;span style=&quot;font-size: 24px;&quot;&gt;&lt;u&gt;CNPJ&lt;/u&gt;&lt;/span&gt;" id="_2FyJOpEgwjQeb3k811O-80">
          <mxCell style="rounded=0;whiteSpace=wrap;html=1;" parent="1" vertex="1">
            <mxGeometry x="-2195" y="-505" width="120" height="60" as="geometry" />
          </mxCell>
        </object>
        <mxCell id="_2FyJOpEgwjQeb3k811O-81" value="&lt;font style=&quot;font-size: 36px;&quot;&gt;Fornecedor&lt;/font&gt;" style="text;html=1;align=center;verticalAlign=middle;whiteSpace=wrap;rounded=0;" parent="1" vertex="1">
          <mxGeometry x="-2428" y="-513" width="233" height="71" as="geometry" />
        </mxCell>
        <mxCell id="_2FyJOpEgwjQeb3k811O-82" value="&lt;font style=&quot;font-size: 36px;&quot;&gt;Pizza&lt;/font&gt;" style="text;html=1;align=center;verticalAlign=middle;whiteSpace=wrap;rounded=0;" parent="1" vertex="1">
          <mxGeometry x="-1848" y="198" width="163" height="58" as="geometry" />
        </mxCell>
        <mxCell id="X-zzqmeFg_C_4G8-m1_Y-32" style="edgeStyle=orthogonalEdgeStyle;rounded=0;orthogonalLoop=1;jettySize=auto;html=1;exitX=0.5;exitY=1;exitDx=0;exitDy=0;entryX=0.5;entryY=1;entryDx=0;entryDy=0;" edge="1" parent="1" source="_2FyJOpEgwjQeb3k811O-83" target="_2FyJOpEgwjQeb3k811O-85">
          <mxGeometry relative="1" as="geometry">
            <Array as="points">
              <mxPoint x="-2027" y="606" />
              <mxPoint x="-2027" y="677" />
              <mxPoint x="-1350" y="677" />
              <mxPoint x="-1350" y="614" />
            </Array>
          </mxGeometry>
        </mxCell>
        <object label="&lt;span style=&quot;font-size: 24px;&quot;&gt;CPF_Entregador&lt;/span&gt;" id="_2FyJOpEgwjQeb3k811O-83">
          <mxCell style="rounded=0;whiteSpace=wrap;html=1;" parent="1" vertex="1">
            <mxGeometry x="-2177" y="546" width="198" height="60" as="geometry" />
          </mxCell>
        </object>
        <object label="&lt;span style=&quot;font-size: 24px;&quot;&gt;Preço&lt;/span&gt;" id="_2FyJOpEgwjQeb3k811O-84">
          <mxCell style="rounded=0;whiteSpace=wrap;html=1;" parent="1" vertex="1">
            <mxGeometry x="-1441" y="196" width="120" height="60" as="geometry" />
          </mxCell>
        </object>
        <object label="&lt;span style=&quot;font-size: 24px;&quot;&gt;&lt;u&gt;CPF&lt;/u&gt;&lt;/span&gt;" id="_2FyJOpEgwjQeb3k811O-85">
          <mxCell style="rounded=0;whiteSpace=wrap;html=1;" parent="1" vertex="1">
            <mxGeometry x="-1416" y="554" width="120" height="60" as="geometry" />
          </mxCell>
        </object>
        <object label="&lt;span style=&quot;font-size: 24px;&quot;&gt;Endereço&lt;/span&gt;" id="_2FyJOpEgwjQeb3k811O-92">
          <mxCell style="rounded=0;whiteSpace=wrap;html=1;" parent="1" vertex="1">
            <mxGeometry x="-2077" y="807" width="120" height="60" as="geometry" />
          </mxCell>
        </object>
        <object label="&lt;span style=&quot;font-size: 24px;&quot;&gt;Telefone&lt;/span&gt;" id="_2FyJOpEgwjQeb3k811O-93">
          <mxCell style="rounded=0;whiteSpace=wrap;html=1;" parent="1" vertex="1">
            <mxGeometry x="-1957" y="807" width="120" height="60" as="geometry" />
          </mxCell>
        </object>
        <object label="&lt;span style=&quot;font-size: 24px;&quot;&gt;E-mail&lt;/span&gt;" id="_2FyJOpEgwjQeb3k811O-94">
          <mxCell style="rounded=0;whiteSpace=wrap;html=1;" parent="1" vertex="1">
            <mxGeometry x="-1837" y="807" width="120" height="60" as="geometry" />
          </mxCell>
        </object>
        <object label="&lt;span style=&quot;font-size: 24px;&quot;&gt;Nome&lt;/span&gt;" id="_2FyJOpEgwjQeb3k811O-95">
          <mxCell style="rounded=0;whiteSpace=wrap;html=1;" parent="1" vertex="1">
            <mxGeometry x="-2197" y="807" width="120" height="60" as="geometry" />
          </mxCell>
        </object>
        <object label="&lt;span style=&quot;font-size: 24px;&quot;&gt;&lt;u&gt;CPF&lt;/u&gt;&lt;/span&gt;" id="_2FyJOpEgwjQeb3k811O-97">
          <mxCell style="rounded=0;whiteSpace=wrap;html=1;" parent="1" vertex="1">
            <mxGeometry x="-2317" y="807" width="120" height="60" as="geometry" />
          </mxCell>
        </object>
        <object label="&lt;span style=&quot;font-size: 24px;&quot;&gt;Unidade_Medida&lt;/span&gt;" id="_2FyJOpEgwjQeb3k811O-99">
          <mxCell style="rounded=0;whiteSpace=wrap;html=1;" parent="1" vertex="1">
            <mxGeometry x="-1070" y="-138" width="206" height="60" as="geometry" />
          </mxCell>
        </object>
        <object label="&lt;span style=&quot;font-size: 24px;&quot;&gt;&lt;u&gt;ID_Acompanhamento&lt;/u&gt;&lt;/span&gt;" id="_2FyJOpEgwjQeb3k811O-100">
          <mxCell style="rounded=0;whiteSpace=wrap;html=1;" parent="1" vertex="1">
            <mxGeometry x="-2601" y="-143" width="262" height="60" as="geometry" />
          </mxCell>
        </object>
        <object label="&lt;span style=&quot;font-size: 24px;&quot;&gt;Tipo_Acompanhamento&lt;/span&gt;" id="_2FyJOpEgwjQeb3k811O-101">
          <mxCell style="rounded=0;whiteSpace=wrap;html=1;" parent="1" vertex="1">
            <mxGeometry x="-2101" y="-143.5" width="280" height="60" as="geometry" />
          </mxCell>
        </object>
        <mxCell id="X-zzqmeFg_C_4G8-m1_Y-15" style="edgeStyle=orthogonalEdgeStyle;rounded=0;orthogonalLoop=1;jettySize=auto;html=1;exitX=0.5;exitY=1;exitDx=0;exitDy=0;entryX=0.5;entryY=0;entryDx=0;entryDy=0;" edge="1" parent="1" source="_2FyJOpEgwjQeb3k811O-104" target="_2FyJOpEgwjQeb3k811O-38">
          <mxGeometry relative="1" as="geometry" />
        </mxCell>
        <object label="&lt;span style=&quot;font-size: 24px;&quot;&gt;&lt;u&gt;ID_Pizza&lt;/u&gt;&lt;/span&gt;" id="_2FyJOpEgwjQeb3k811O-104">
          <mxCell style="rounded=0;whiteSpace=wrap;html=1;" parent="1" vertex="1">
            <mxGeometry x="-1682" y="26" width="120" height="60" as="geometry" />
          </mxCell>
        </object>
        <mxCell id="X-zzqmeFg_C_4G8-m1_Y-14" style="edgeStyle=orthogonalEdgeStyle;rounded=0;orthogonalLoop=1;jettySize=auto;html=1;exitX=0.5;exitY=0;exitDx=0;exitDy=0;entryX=0.5;entryY=1;entryDx=0;entryDy=0;" edge="1" parent="1" source="_2FyJOpEgwjQeb3k811O-105" target="_2FyJOpEgwjQeb3k811O-49">
          <mxGeometry relative="1" as="geometry" />
        </mxCell>
        <object label="&lt;span style=&quot;font-size: 24px;&quot;&gt;&lt;u&gt;ID_Ingrediente&lt;/u&gt;&lt;/span&gt;" id="_2FyJOpEgwjQeb3k811O-105">
          <mxCell style="rounded=0;whiteSpace=wrap;html=1;" parent="1" vertex="1">
            <mxGeometry x="-1562" y="26" width="182" height="60" as="geometry" />
          </mxCell>
        </object>
        <object label="&lt;span style=&quot;font-size: 24px;&quot;&gt;Preço&lt;/span&gt;" id="X-zzqmeFg_C_4G8-m1_Y-1">
          <mxCell style="rounded=0;whiteSpace=wrap;html=1;" vertex="1" parent="1">
            <mxGeometry x="-1379" y="-314" width="120" height="60" as="geometry" />
          </mxCell>
        </object>
        <object label="&lt;span style=&quot;font-size: 24px;&quot;&gt;Qunatidade&lt;/span&gt;" id="X-zzqmeFg_C_4G8-m1_Y-2">
          <mxCell style="rounded=0;whiteSpace=wrap;html=1;" vertex="1" parent="1">
            <mxGeometry x="-1259" y="-314" width="148" height="60" as="geometry" />
          </mxCell>
        </object>
        <mxCell id="X-zzqmeFg_C_4G8-m1_Y-9" style="edgeStyle=orthogonalEdgeStyle;rounded=0;orthogonalLoop=1;jettySize=auto;html=1;exitX=0.5;exitY=0;exitDx=0;exitDy=0;entryX=0.75;entryY=1;entryDx=0;entryDy=0;" edge="1" parent="1" source="X-zzqmeFg_C_4G8-m1_Y-3" target="_2FyJOpEgwjQeb3k811O-80">
          <mxGeometry relative="1" as="geometry" />
        </mxCell>
        <object label="&lt;span style=&quot;font-size: 24px;&quot;&gt;&lt;u&gt;CNPJ&lt;/u&gt;&lt;/span&gt;" id="X-zzqmeFg_C_4G8-m1_Y-3">
          <mxCell style="rounded=0;whiteSpace=wrap;html=1;" vertex="1" parent="1">
            <mxGeometry x="-1681" y="-314" width="120" height="60" as="geometry" />
          </mxCell>
        </object>
        <mxCell id="X-zzqmeFg_C_4G8-m1_Y-4" value="&lt;font style=&quot;font-size: 36px;&quot;&gt;Fornece_Ingrediente&lt;/font&gt;" style="text;html=1;align=center;verticalAlign=middle;whiteSpace=wrap;rounded=0;" vertex="1" parent="1">
          <mxGeometry x="-2021" y="-314" width="338" height="59" as="geometry" />
        </mxCell>
        <mxCell id="X-zzqmeFg_C_4G8-m1_Y-18" style="edgeStyle=orthogonalEdgeStyle;rounded=0;orthogonalLoop=1;jettySize=auto;html=1;exitX=0.5;exitY=1;exitDx=0;exitDy=0;entryX=0.5;entryY=0;entryDx=0;entryDy=0;" edge="1" parent="1" source="X-zzqmeFg_C_4G8-m1_Y-5" target="_2FyJOpEgwjQeb3k811O-100">
          <mxGeometry relative="1" as="geometry" />
        </mxCell>
        <object label="&lt;span style=&quot;font-size: 24px;&quot;&gt;&lt;u&gt;ID_Acompanhamento&lt;/u&gt;&lt;/span&gt;" id="X-zzqmeFg_C_4G8-m1_Y-5">
          <mxCell style="rounded=0;whiteSpace=wrap;html=1;" vertex="1" parent="1">
            <mxGeometry x="-2600" y="-317" width="262" height="60" as="geometry" />
          </mxCell>
        </object>
        <mxCell id="X-zzqmeFg_C_4G8-m1_Y-16" style="edgeStyle=orthogonalEdgeStyle;rounded=0;orthogonalLoop=1;jettySize=auto;html=1;exitX=0.5;exitY=1;exitDx=0;exitDy=0;entryX=0.5;entryY=0;entryDx=0;entryDy=0;" edge="1" parent="1" source="X-zzqmeFg_C_4G8-m1_Y-6" target="_2FyJOpEgwjQeb3k811O-49">
          <mxGeometry relative="1" as="geometry" />
        </mxCell>
        <object label="&lt;span style=&quot;font-size: 24px;&quot;&gt;&lt;u&gt;ID_Ingrediente&lt;/u&gt;&lt;/span&gt;" id="X-zzqmeFg_C_4G8-m1_Y-6">
          <mxCell style="rounded=0;whiteSpace=wrap;html=1;" vertex="1" parent="1">
            <mxGeometry x="-1561" y="-314" width="182" height="60" as="geometry" />
          </mxCell>
        </object>
        <mxCell id="X-zzqmeFg_C_4G8-m1_Y-7" value="&lt;span style=&quot;color: rgb(240, 240, 240); font-family: Helvetica; font-size: 36px; font-style: normal; font-variant-ligatures: normal; font-variant-caps: normal; font-weight: 400; letter-spacing: normal; orphans: 2; text-align: center; text-indent: 0px; text-transform: none; widows: 2; word-spacing: 0px; -webkit-text-stroke-width: 0px; white-space: normal; background-color: rgb(24, 20, 29); text-decoration-thickness: initial; text-decoration-style: initial; text-decoration-color: initial; display: inline !important; float: none;&quot;&gt;Fornece_Acompanhamento&lt;/span&gt;" style="text;whiteSpace=wrap;html=1;" vertex="1" parent="1">
          <mxGeometry x="-3176" y="-319" width="455" height="65" as="geometry" />
        </mxCell>
        <object label="&lt;br&gt;&lt;u style=&quot;forced-color-adjust: none; border-color: rgb(0, 0, 0); color: rgb(240, 240, 240); font-family: Helvetica; font-size: 24px; font-style: normal; font-variant-ligatures: normal; font-variant-caps: normal; font-weight: 400; letter-spacing: normal; orphans: 2; text-align: center; text-indent: 0px; text-transform: none; widows: 2; word-spacing: 0px; -webkit-text-stroke-width: 0px; white-space: normal; background-color: rgb(24, 20, 29);&quot;&gt;ID_Pizza&lt;/u&gt;&lt;div&gt;&lt;br/&gt;&lt;/div&gt;" id="X-zzqmeFg_C_4G8-m1_Y-19">
          <mxCell style="rounded=0;whiteSpace=wrap;html=1;" vertex="1" parent="1">
            <mxGeometry x="-1547" y="373.5" width="120" height="60" as="geometry" />
          </mxCell>
        </object>
        <object label="&lt;span style=&quot;font-size: 24px;&quot;&gt;Quantidade&lt;/span&gt;" id="X-zzqmeFg_C_4G8-m1_Y-20">
          <mxCell style="rounded=0;whiteSpace=wrap;html=1;" vertex="1" parent="1">
            <mxGeometry x="-1427" y="373.5" width="145" height="60" as="geometry" />
          </mxCell>
        </object>
        <mxCell id="X-zzqmeFg_C_4G8-m1_Y-27" style="edgeStyle=orthogonalEdgeStyle;rounded=0;orthogonalLoop=1;jettySize=auto;html=1;exitX=0.5;exitY=0;exitDx=0;exitDy=0;entryX=0.5;entryY=1;entryDx=0;entryDy=0;" edge="1" parent="1" source="X-zzqmeFg_C_4G8-m1_Y-22" target="_2FyJOpEgwjQeb3k811O-38">
          <mxGeometry relative="1" as="geometry" />
        </mxCell>
        <mxCell id="X-zzqmeFg_C_4G8-m1_Y-29" style="edgeStyle=orthogonalEdgeStyle;rounded=0;orthogonalLoop=1;jettySize=auto;html=1;exitX=0.5;exitY=1;exitDx=0;exitDy=0;entryX=0.75;entryY=0;entryDx=0;entryDy=0;" edge="1" parent="1" source="X-zzqmeFg_C_4G8-m1_Y-22" target="_2FyJOpEgwjQeb3k811O-30">
          <mxGeometry relative="1" as="geometry" />
        </mxCell>
        <object label="&lt;span style=&quot;font-size: 24px;&quot;&gt;&lt;u&gt;ID_Pedido&lt;/u&gt;&lt;/span&gt;" id="X-zzqmeFg_C_4G8-m1_Y-22">
          <mxCell style="rounded=0;whiteSpace=wrap;html=1;" vertex="1" parent="1">
            <mxGeometry x="-1691" y="373.5" width="142" height="60" as="geometry" />
          </mxCell>
        </object>
        <mxCell id="X-zzqmeFg_C_4G8-m1_Y-23" value="&lt;font style=&quot;font-size: 36px;&quot;&gt;Pizza_Pedida&lt;/font&gt;" style="text;html=1;align=center;verticalAlign=middle;whiteSpace=wrap;rounded=0;" vertex="1" parent="1">
          <mxGeometry x="-1921" y="365.5" width="239" height="71" as="geometry" />
        </mxCell>
      </root>
    </mxGraphModel>
  </diagram>
</mxfile>
